<svg id="svg" version="1.1" xmlns="http://www.w3.org/2000/svg" xmlns:xlink="http://www.w3.org/1999/xlink" width="400" height="300" viewBox="0, 0, 400,300"><g id="svgg"><path id="path0" d="M248.162 107.424 C 247.584 107.553,245.829 107.887,244.261 108.165 C 242.693 108.444,241.073 108.786,240.660 108.925 C 240.248 109.065,239.100 109.406,238.110 109.683 C 237.119 109.961,236.039 110.299,235.709 110.434 C 235.379 110.570,234.434 110.910,233.608 111.191 C 232.783 111.471,231.395 112.021,230.524 112.414 C 229.653 112.807,228.835 113.128,228.705 113.128 C 228.576 113.128,227.873 113.417,227.143 113.769 C 225.750 114.442,223.690 114.372,216.954 113.423 C 210.619 112.529,207.831 112.428,206.556 113.043 C 205.469 113.569,199.451 117.936,196.966 120.003 C 196.452 120.431,195.248 121.388,194.290 122.131 C 183.522 130.476,167.904 145.276,168.096 146.951 C 168.187 147.746,168.265 147.785,169.692 147.757 C 171.369 147.723,179.689 146.858,181.112 146.570 C 183.285 146.131,183.155 147.525,180.777 150.169 C 179.301 151.811,179.163 152.541,179.773 155.499 C 180.899 160.964,183.203 164.628,187.997 168.583 C 189.288 169.648,189.165 169.639,193.098 168.965 C 194.703 168.691,195.649 168.964,195.649 169.703 C 195.649 169.945,195.523 170.143,195.369 170.143 C 195.215 170.143,195.011 170.389,194.916 170.690 C 194.820 170.991,194.496 171.501,194.196 171.823 C 193.896 172.145,193.391 172.805,193.074 173.290 C 192.757 173.775,191.436 175.595,190.138 177.334 C 186.207 182.598,186.859 182.949,195.949 180.467 C 196.857 180.219,198.140 179.872,198.800 179.696 C 199.460 179.520,200.338 179.267,200.750 179.134 C 201.163 179.001,202.311 178.660,203.301 178.377 C 206.513 177.456,213.538 175.098,217.104 173.745 C 219.113 172.982,227.481 169.696,228.357 169.325 C 228.935 169.081,229.677 168.767,230.008 168.628 C 237.362 165.526,237.544 165.400,238.870 162.468 C 239.386 161.325,240.068 159.818,240.385 159.118 C 240.701 158.418,240.960 157.786,240.960 157.714 C 240.960 157.641,241.374 156.687,241.880 155.594 C 242.982 153.213,242.937 152.927,241.560 153.597 C 240.983 153.878,240.038 154.293,239.460 154.519 C 238.882 154.744,238.005 155.098,237.509 155.306 C 237.014 155.513,235.934 155.912,235.109 156.192 C 234.284 156.473,233.338 156.809,233.008 156.939 C 230.276 158.016,224.305 159.685,218.380 161.028 C 217.926 161.131,217.554 161.096,217.554 160.951 C 217.554 160.651,217.921 160.481,222.506 158.645 C 224.321 157.918,226.482 157.024,227.307 156.659 C 228.132 156.294,229.280 155.787,229.857 155.531 C 253.537 145.055,267.322 131.215,271.421 113.803 C 272.280 110.152,271.540 109.387,266.017 108.222 C 264.696 107.943,263.040 107.583,262.336 107.421 C 260.841 107.077,249.702 107.079,248.162 107.424 M263.275 112.212 C 264.393 112.638,264.257 113.128,263.020 113.128 C 262.445 113.128,261.398 113.265,260.694 113.432 C 259.991 113.599,258.132 113.997,256.564 114.316 C 252.710 115.102,245.881 116.991,243.511 117.929 C 243.181 118.059,242.236 118.393,241.410 118.671 C 240.585 118.949,239.640 119.297,239.310 119.444 C 238.980 119.591,237.697 120.107,236.459 120.589 C 224.686 125.179,205.768 136.570,190.098 148.506 C 185.594 151.937,186.375 150.675,192.402 144.786 C 210.390 127.210,225.148 117.670,240.960 113.399 C 246.839 111.811,260.332 111.093,263.275 112.212 M172.543 153.945 C 172.171 154.168,169.149 155.000,166.365 155.645 C 166.020 155.725,157.378 164.168,147.160 174.408 C 136.942 184.648,128.852 192.932,129.182 192.817 C 129.512 192.702,130.593 192.405,131.583 192.158 C 132.573 191.911,133.788 191.593,134.284 191.453 C 134.779 191.312,136.534 190.837,138.185 190.397 C 139.835 189.957,141.928 189.395,142.836 189.147 C 143.743 188.900,145.026 188.584,145.686 188.447 C 146.347 188.310,147.697 187.976,148.687 187.705 C 149.677 187.434,150.825 187.142,151.238 187.057 C 151.650 186.971,152.258 186.788,152.588 186.649 C 152.918 186.510,154.336 186.107,155.739 185.753 C 158.540 185.045,163.067 183.860,165.641 183.160 C 166.549 182.913,167.629 182.641,168.042 182.556 C 168.455 182.470,169.062 182.287,169.392 182.148 C 169.993 181.896,173.378 181.005,177.044 180.134 C 178.893 179.695,179.148 179.520,181.935 176.778 L 184.875 173.886 182.220 171.189 C 179.830 168.762,177.944 166.532,177.944 166.133 C 177.944 166.051,177.476 165.198,176.903 164.237 C 175.733 162.273,174.291 158.333,173.710 155.514 C 173.306 153.553,173.271 153.506,172.543 153.945 " stroke="none" fill="#4c4c4c" fill-rule="evenodd"></path><path id="path1" d="M0.000 150.038 L 0.000 300.075 200.000 300.075 L 400.000 300.075 400.000 150.038 L 400.000 0.000 200.000 0.000 L 0.000 0.000 0.000 150.038 M263.039 107.073 C 263.687 107.238,265.203 107.607,266.409 107.892 C 272.349 109.295,272.953 110.139,271.557 115.079 C 271.230 116.234,270.879 117.553,270.776 118.011 C 270.674 118.468,270.473 118.915,270.329 119.004 C 270.185 119.093,270.068 119.370,270.068 119.620 C 270.068 119.871,269.349 121.588,268.470 123.436 C 263.325 134.261,253.903 143.325,239.760 151.057 C 235.831 153.204,225.411 158.140,224.804 158.140 C 224.675 158.140,223.970 158.430,223.237 158.784 C 222.505 159.139,221.568 159.543,221.155 159.682 C 220.461 159.915,220.472 159.925,221.305 159.819 C 222.796 159.629,227.682 158.281,231.508 157.005 C 236.161 155.453,237.715 154.855,241.355 153.214 C 244.056 151.997,244.091 151.722,240.508 159.790 C 237.987 165.468,237.726 165.783,234.411 167.162 C 233.145 167.689,231.261 168.507,230.225 168.981 C 229.189 169.455,228.265 169.842,228.170 169.842 C 228.075 169.842,227.572 170.036,227.052 170.272 C 226.532 170.508,224.689 171.261,222.956 171.945 C 221.223 172.629,219.535 173.303,219.205 173.443 C 218.875 173.583,217.929 173.924,217.104 174.202 C 216.279 174.480,215.334 174.817,215.004 174.952 C 214.674 175.087,213.728 175.425,212.903 175.702 C 212.078 175.980,211.133 176.321,210.803 176.459 C 209.788 176.884,202.378 179.145,201.999 179.145 C 201.803 179.145,201.408 179.265,201.121 179.412 C 200.388 179.789,197.347 180.645,196.744 180.645 C 196.467 180.645,196.006 180.765,195.720 180.913 C 195.206 181.176,191.946 181.952,189.993 182.276 C 186.817 182.802,186.549 180.562,189.431 177.592 C 190.257 176.741,195.049 169.913,195.049 169.587 C 195.049 169.141,193.857 169.165,191.563 169.657 C 189.565 170.086,188.973 169.931,187.325 168.546 C 182.668 164.631,180.643 161.207,179.171 154.759 C 178.589 152.208,178.832 151.582,181.501 148.763 C 183.096 147.078,182.676 146.895,178.196 147.319 C 176.159 147.511,173.842 147.796,173.045 147.953 C 168.795 148.787,166.908 148.072,167.955 146.024 C 168.389 145.175,176.220 137.174,180.046 133.670 C 183.470 130.534,188.237 126.396,189.172 125.749 C 189.516 125.511,189.865 125.228,189.947 125.121 C 190.030 125.014,191.583 123.746,193.398 122.304 C 195.214 120.862,196.905 119.518,197.157 119.316 C 197.409 119.115,198.422 118.350,199.408 117.616 C 200.394 116.883,201.268 116.208,201.350 116.117 C 202.111 115.280,206.416 112.506,207.177 112.363 C 208.193 112.172,215.080 112.636,218.455 113.122 C 225.786 114.177,225.350 114.168,227.213 113.312 C 228.151 112.881,228.991 112.528,229.079 112.528 C 229.167 112.528,229.978 112.191,230.880 111.778 C 231.782 111.365,232.704 111.028,232.929 111.028 C 233.154 111.028,233.467 110.914,233.623 110.775 C 233.780 110.636,234.719 110.287,235.709 110.001 C 236.699 109.714,237.847 109.371,238.260 109.238 C 241.383 108.233,246.685 107.139,250.563 106.699 C 252.456 106.484,261.836 106.765,263.039 107.073 M245.911 112.843 C 241.584 113.642,238.776 114.316,237.209 114.930 C 236.879 115.059,235.934 115.395,235.109 115.675 C 234.284 115.956,233.203 116.355,232.708 116.562 C 232.213 116.770,231.335 117.122,230.758 117.346 C 229.131 117.976,223.333 120.991,221.075 122.381 C 219.958 123.068,218.923 123.631,218.774 123.631 C 218.626 123.631,218.460 123.735,218.405 123.861 C 218.350 123.988,217.562 124.562,216.654 125.137 C 215.083 126.131,206.679 132.368,205.981 133.056 C 205.799 133.236,205.067 133.856,204.355 134.434 C 202.556 135.893,200.936 137.306,198.868 139.221 C 197.896 140.120,196.808 141.109,196.450 141.418 C 195.567 142.180,191.507 146.137,190.416 147.298 C 189.575 148.195,189.475 148.665,190.301 147.842 C 190.639 147.506,199.728 140.974,201.050 140.117 C 201.298 139.957,202.851 138.929,204.501 137.833 C 207.710 135.702,219.279 128.432,219.460 128.432 C 219.520 128.432,220.702 127.787,222.087 126.998 C 225.970 124.787,231.256 122.259,236.009 120.338 C 237.329 119.804,238.815 119.193,239.310 118.978 C 240.760 118.350,247.029 116.325,250.413 115.392 C 251.403 115.119,252.618 114.782,253.113 114.643 C 253.608 114.504,255.094 114.165,256.414 113.890 C 257.734 113.615,259.303 113.263,259.900 113.109 C 260.497 112.954,261.307 112.819,261.700 112.807 C 262.368 112.787,262.376 112.769,261.815 112.528 C 260.627 112.018,249.149 112.245,245.911 112.843 M173.829 154.541 C 175.800 162.579,178.124 166.817,183.271 171.765 C 185.611 174.015,185.668 173.687,182.371 176.965 C 179.634 179.685,178.055 180.645,176.316 180.645 C 175.958 180.645,175.536 180.758,175.379 180.895 C 175.222 181.032,174.014 181.387,172.693 181.684 C 171.373 181.980,170.023 182.329,169.692 182.460 C 169.362 182.590,168.147 182.924,166.992 183.202 C 165.836 183.480,164.621 183.810,164.291 183.936 C 163.498 184.240,160.921 184.892,159.790 185.075 C 159.295 185.156,158.755 185.316,158.590 185.432 C 158.425 185.548,157.209 185.885,155.889 186.183 C 154.569 186.480,153.218 186.830,152.888 186.961 C 152.558 187.091,151.343 187.425,150.188 187.703 C 149.032 187.981,147.817 188.312,147.487 188.439 C 147.157 188.566,145.806 188.905,144.486 189.192 C 143.166 189.479,141.815 189.822,141.485 189.955 C 141.155 190.088,139.805 190.469,138.485 190.802 C 137.164 191.135,135.274 191.635,134.284 191.913 C 133.293 192.191,132.011 192.529,131.433 192.663 C 130.855 192.798,129.876 193.038,129.257 193.197 C 128.497 193.392,128.132 193.385,128.132 193.175 C 128.132 192.633,165.444 155.439,165.987 155.439 C 166.273 155.439,166.579 155.322,166.667 155.178 C 166.756 155.035,167.405 154.827,168.110 154.716 C 169.381 154.517,170.937 154.087,172.093 153.616 C 173.105 153.204,173.561 153.447,173.829 154.541 " stroke="none" fill="#fbfbfb" fill-rule="evenodd"></path><path id="path2" d="M254.394 111.845 C 254.933 111.912,255.744 111.911,256.194 111.842 C 256.645 111.774,256.204 111.719,255.214 111.721 C 254.224 111.723,253.855 111.779,254.394 111.845 " stroke="none" fill="#a4a4a4" fill-rule="evenodd"></path><path id="path3" d="M253.338 107.049 C 254.452 107.107,256.275 107.107,257.389 107.049 C 258.503 106.991,257.592 106.944,255.364 106.944 C 253.136 106.944,252.224 106.991,253.338 107.049 M262.116 107.413 C 262.692 107.674,264.299 107.844,264.041 107.617 C 263.972 107.556,263.376 107.424,262.716 107.324 C 261.879 107.196,261.697 107.223,262.116 107.413 M246.437 107.634 C 246.725 107.709,247.198 107.709,247.487 107.634 C 247.776 107.558,247.539 107.496,246.962 107.496 C 246.384 107.496,246.148 107.558,246.437 107.634 M251.688 111.840 C 252.059 111.911,252.667 111.911,253.038 111.840 C 253.410 111.768,253.106 111.710,252.363 111.710 C 251.620 111.710,251.317 111.768,251.688 111.840 M257.393 111.840 C 257.766 111.912,258.306 111.909,258.593 111.834 C 258.880 111.759,258.575 111.700,257.914 111.704 C 257.254 111.707,257.020 111.768,257.393 111.840 M246.662 112.243 C 246.156 112.415,246.400 112.441,247.412 112.324 C 248.237 112.229,248.968 112.101,249.037 112.040 C 249.274 111.829,247.411 111.988,246.662 112.243 M261.515 112.125 C 263.657 112.577,263.660 112.579,263.016 112.841 C 262.490 113.056,262.518 113.089,263.241 113.107 C 263.695 113.119,264.066 112.990,264.066 112.821 C 264.066 112.410,262.724 111.919,261.721 111.963 C 261.127 111.988,261.073 112.031,261.515 112.125 M210.428 112.735 C 210.716 112.810,211.189 112.810,211.478 112.735 C 211.767 112.660,211.530 112.598,210.953 112.598 C 210.375 112.598,210.139 112.660,210.428 112.735 M212.828 113.035 C 213.117 113.111,213.590 113.111,213.878 113.035 C 214.167 112.960,213.931 112.898,213.353 112.898 C 212.776 112.898,212.539 112.960,212.828 113.035 M259.715 113.428 C 258.898 113.636,258.884 113.659,259.565 113.672 C 259.977 113.680,260.585 113.570,260.915 113.428 C 261.655 113.110,260.964 113.110,259.715 113.428 M218.383 113.641 C 218.756 113.712,219.296 113.710,219.583 113.635 C 219.870 113.559,219.565 113.501,218.905 113.504 C 218.245 113.507,218.010 113.569,218.383 113.641 M196.399 120.225 C 195.495 121.032,195.428 121.144,196.126 120.678 C 196.955 120.123,197.998 119.112,197.711 119.141 C 197.650 119.147,197.059 119.635,196.399 120.225 M227.457 124.381 C 226.714 124.779,226.213 125.110,226.344 125.118 C 226.662 125.136,228.957 123.957,228.957 123.775 C 228.957 123.576,228.970 123.571,227.457 124.381 M180.329 133.758 L 179.295 134.884 180.420 133.850 C 181.467 132.887,181.683 132.633,181.454 132.633 C 181.404 132.633,180.898 133.140,180.329 133.758 M258.065 137.284 C 256.835 138.522,255.896 139.535,255.979 139.535 C 256.062 139.535,257.135 138.522,258.365 137.284 C 259.594 136.047,260.533 135.034,260.450 135.034 C 260.368 135.034,259.294 136.047,258.065 137.284 M200.820 136.843 C 200.281 137.333,199.952 137.734,200.089 137.734 C 200.226 137.734,200.726 137.329,201.200 136.834 C 202.303 135.683,202.090 135.688,200.820 136.843 M173.593 140.135 C 171.618 142.116,170.069 143.736,170.152 143.736 C 170.234 143.736,171.918 142.116,173.893 140.135 C 175.869 138.155,177.417 136.534,177.335 136.534 C 177.252 136.534,175.569 138.155,173.593 140.135 M197.520 139.844 C 196.981 140.334,196.652 140.735,196.788 140.735 C 196.925 140.735,197.425 140.330,197.899 139.835 C 199.002 138.684,198.789 138.689,197.520 139.844 M254.072 140.895 C 253.609 141.302,253.349 141.635,253.494 141.635 C 253.640 141.635,254.076 141.298,254.464 140.885 C 255.360 139.931,255.162 139.935,254.072 140.895 M191.609 145.535 C 189.154 148.010,187.226 150.116,187.325 150.215 C 187.524 150.415,190.091 148.733,190.434 148.179 C 190.553 147.986,190.176 148.190,189.595 148.633 C 187.345 150.349,188.172 149.270,192.198 145.236 C 194.504 142.926,196.320 141.035,196.232 141.035 C 196.145 141.035,194.064 143.060,191.609 145.535 M249.962 144.068 C 247.607 145.788,247.360 146.174,249.604 144.629 C 251.212 143.521,252.067 142.797,251.706 142.849 C 251.655 142.856,250.870 143.405,249.962 144.068 M181.518 146.699 C 181.915 146.810,182.344 147.168,182.472 147.494 C 182.634 147.909,182.710 147.947,182.725 147.622 C 182.754 146.971,182.139 146.431,181.410 146.467 C 180.876 146.492,180.890 146.523,181.518 146.699 M173.068 147.549 C 173.440 147.620,174.047 147.620,174.419 147.549 C 174.790 147.477,174.486 147.419,173.743 147.419 C 173.001 147.419,172.697 147.477,173.068 147.549 M179.214 152.738 C 179.214 153.316,179.276 153.552,179.352 153.263 C 179.427 152.974,179.427 152.502,179.352 152.213 C 179.276 151.924,179.214 152.161,179.214 152.738 M173.494 154.539 C 173.510 155.318,173.982 156.599,173.993 155.889 C 173.997 155.559,173.885 155.019,173.743 154.689 C 173.585 154.321,173.489 154.263,173.494 154.539 M151.687 169.617 L 137.884 183.496 151.763 169.694 C 164.663 156.865,165.776 155.739,165.565 155.739 C 165.523 155.739,159.278 161.984,151.687 169.617 M222.056 159.940 C 221.437 160.138,221.411 160.185,221.905 160.206 C 222.236 160.219,222.708 160.100,222.956 159.940 C 223.482 159.600,223.116 159.600,222.056 159.940 M218.230 160.348 C 216.927 160.993,217.811 161.439,219.205 160.840 L 219.805 160.582 219.205 160.557 C 218.706 160.535,218.680 160.482,219.055 160.240 C 219.655 159.852,219.079 159.927,218.230 160.348 M181.095 170.143 C 181.740 170.803,182.335 171.343,182.417 171.343 C 182.500 171.343,182.040 170.803,181.395 170.143 C 180.751 169.482,180.156 168.942,180.073 168.942 C 179.991 168.942,180.451 169.482,181.095 170.143 M192.047 174.419 C 191.605 175.022,191.533 175.232,191.857 174.968 C 192.349 174.569,193.093 173.443,192.865 173.443 C 192.808 173.443,192.440 173.882,192.047 174.419 M181.989 176.819 L 179.295 179.595 182.071 176.900 C 184.649 174.398,184.983 174.044,184.765 174.044 C 184.720 174.044,183.471 175.293,181.989 176.819 M215.004 174.504 C 214.253 174.866,214.228 174.907,214.854 174.754 C 215.704 174.547,216.660 174.059,216.204 174.066 C 216.039 174.069,215.499 174.266,215.004 174.504 M192.798 181.245 C 192.420 181.408,192.364 181.503,192.648 181.503 C 192.896 181.503,193.368 181.387,193.698 181.245 C 194.077 181.083,194.132 180.987,193.848 180.987 C 193.601 180.987,193.128 181.103,192.798 181.245 M188.121 181.940 C 188.257 182.076,188.892 182.141,189.533 182.085 L 190.698 181.983 189.286 181.838 C 188.510 181.758,187.986 181.804,188.121 181.940 M158.140 185.160 C 157.811 185.382,157.932 185.410,158.590 185.263 C 159.693 185.016,159.933 184.845,159.165 184.851 C 158.848 184.853,158.387 184.992,158.140 185.160 M135.334 191.161 C 135.005 191.384,135.127 191.412,135.784 191.265 C 136.887 191.018,137.127 190.846,136.359 190.852 C 136.043 190.855,135.581 190.994,135.334 191.161 " stroke="none" fill="#9c9c9c" fill-rule="evenodd"></path><path id="path4" d="M253.338 106.749 C 254.452 106.807,256.275 106.807,257.389 106.749 C 258.503 106.691,257.592 106.644,255.364 106.644 C 253.136 106.644,252.224 106.691,253.338 106.749 M248.687 107.038 C 249.059 107.110,249.666 107.110,250.038 107.038 C 250.409 106.967,250.105 106.908,249.362 106.908 C 248.620 106.908,248.316 106.967,248.687 107.038 M260.690 107.038 C 261.062 107.110,261.669 107.110,262.041 107.038 C 262.412 106.967,262.108 106.908,261.365 106.908 C 260.623 106.908,260.319 106.967,260.690 107.038 M244.111 107.727 C 243.346 108.056,244.135 108.056,245.161 107.727 C 245.764 107.534,245.794 107.485,245.311 107.478 C 244.981 107.473,244.441 107.585,244.111 107.727 M231.733 111.337 C 230.728 111.741,230.916 111.946,231.958 111.583 C 232.453 111.410,232.858 111.215,232.858 111.148 C 232.858 110.970,232.493 111.032,231.733 111.337 M252.423 112.151 C 253.859 112.206,256.289 112.206,257.824 112.152 C 259.359 112.097,258.185 112.052,255.214 112.052 C 252.243 112.052,250.987 112.096,252.423 112.151 M208.927 112.435 C 209.216 112.510,209.689 112.510,209.977 112.435 C 210.266 112.359,210.030 112.298,209.452 112.298 C 208.875 112.298,208.638 112.359,208.927 112.435 M261.815 112.528 C 262.312 112.742,262.234 112.794,261.365 112.831 C 260.788 112.855,260.491 112.946,260.706 113.032 C 261.380 113.302,263.341 112.823,262.845 112.509 C 262.609 112.360,262.146 112.245,261.815 112.254 L 261.215 112.270 261.815 112.528 M271.755 113.166 C 271.505 114.417,271.748 114.659,272.018 113.428 C 272.132 112.910,272.163 112.423,272.086 112.346 C 272.010 112.270,271.861 112.639,271.755 113.166 M212.828 112.735 C 213.117 112.810,213.590 112.810,213.878 112.735 C 214.167 112.660,213.931 112.598,213.353 112.598 C 212.776 112.598,212.539 112.660,212.828 112.735 M244.561 112.828 C 243.553 113.151,244.642 113.151,245.911 112.828 C 246.720 112.622,246.735 112.599,246.062 112.594 C 245.649 112.590,244.974 112.696,244.561 112.828 M215.533 113.044 C 215.989 113.113,216.664 113.111,217.033 113.039 C 217.402 112.968,217.029 112.912,216.204 112.914 C 215.379 112.916,215.077 112.975,215.533 113.044 M241.860 113.428 C 241.242 113.626,241.216 113.673,241.710 113.694 C 242.041 113.708,242.513 113.588,242.761 113.428 C 243.286 113.089,242.921 113.089,241.860 113.428 M257.014 113.728 C 256.250 114.057,257.039 114.057,258.065 113.728 C 258.668 113.535,258.697 113.486,258.215 113.479 C 257.884 113.475,257.344 113.587,257.014 113.728 M271.139 115.700 C 271.029 116.140,270.996 116.558,271.067 116.629 C 271.138 116.699,271.286 116.397,271.396 115.958 C 271.507 115.518,271.539 115.100,271.468 115.029 C 271.398 114.959,271.250 115.261,271.139 115.700 M239.535 118.839 C 238.530 119.243,238.718 119.448,239.760 119.085 C 240.255 118.912,240.660 118.717,240.660 118.650 C 240.660 118.472,240.295 118.534,239.535 118.839 M191.898 123.514 L 190.698 124.588 191.973 123.634 C 193.071 122.813,193.467 122.418,193.173 122.435 C 193.132 122.438,192.558 122.923,191.898 123.514 M188.272 126.503 L 187.097 127.575 188.372 126.603 C 189.537 125.715,189.822 125.431,189.547 125.431 C 189.492 125.431,188.918 125.914,188.272 126.503 M208.702 130.716 L 207.502 131.790 208.777 130.836 C 209.875 130.015,210.271 129.619,209.977 129.637 C 209.936 129.639,209.362 130.125,208.702 130.716 M263.297 131.634 C 262.835 132.240,262.610 132.641,262.797 132.525 C 263.181 132.288,264.481 130.533,264.272 130.533 C 264.198 130.533,263.759 131.028,263.297 131.634 M180.629 133.158 L 179.595 134.284 180.720 133.249 C 181.768 132.287,181.983 132.033,181.754 132.033 C 181.704 132.033,181.198 132.539,180.629 133.158 M211.028 133.568 C 210.005 134.223,209.674 134.663,210.578 134.166 C 211.266 133.788,212.345 132.954,212.153 132.948 C 212.071 132.945,211.564 133.224,211.028 133.568 M258.208 137.509 L 255.514 140.285 258.290 137.591 C 260.868 135.088,261.202 134.734,260.984 134.734 C 260.939 134.734,259.690 135.983,258.208 137.509 M173.137 140.360 L 170.293 143.286 173.218 140.441 C 174.827 138.876,176.144 137.560,176.144 137.515 C 176.144 137.298,175.780 137.643,173.137 140.360 M197.885 139.910 L 196.699 141.185 197.974 139.999 C 199.161 138.896,199.388 138.635,199.161 138.635 C 199.112 138.635,198.538 139.209,197.885 139.910 M199.021 141.493 C 198.156 142.075,197.449 142.617,197.449 142.697 C 197.449 142.777,198.192 142.349,199.100 141.746 C 200.542 140.789,200.966 140.435,200.671 140.435 C 200.628 140.435,199.885 140.911,199.021 141.493 M194.438 143.061 L 192.798 144.786 194.592 143.136 C 195.578 142.228,196.445 141.452,196.517 141.410 C 196.590 141.369,196.521 141.335,196.364 141.335 C 196.207 141.335,195.340 142.112,194.438 143.061 M192.498 146.148 C 190.909 147.398,190.212 147.683,190.872 146.812 C 191.090 146.523,190.702 146.820,190.008 147.473 C 189.315 148.125,188.747 148.774,188.747 148.915 C 188.747 149.317,190.096 148.270,190.111 147.856 C 190.119 147.653,190.302 147.526,190.519 147.573 C 190.880 147.651,194.149 145.403,194.149 145.077 C 194.149 144.858,194.090 144.896,192.498 146.148 M178.173 147.249 C 178.546 147.321,179.086 147.318,179.373 147.243 C 179.660 147.168,179.355 147.109,178.695 147.112 C 178.035 147.116,177.800 147.177,178.173 147.249 M175.919 147.544 C 176.208 147.619,176.680 147.619,176.969 147.544 C 177.258 147.468,177.022 147.406,176.444 147.406 C 175.866 147.406,175.630 147.468,175.919 147.544 M171.193 147.937 L 169.992 148.152 171.043 148.165 C 171.620 148.172,172.431 148.069,172.843 147.937 C 173.807 147.628,172.917 147.628,171.193 147.937 M181.076 149.212 L 180.195 150.188 181.170 149.306 C 181.707 148.821,182.146 148.383,182.146 148.331 C 182.146 148.099,181.898 148.303,181.076 149.212 M178.866 152.763 C 178.877 153.327,179.004 154.059,179.147 154.389 C 179.314 154.775,179.345 154.454,179.234 153.488 C 179.027 151.704,178.836 151.327,178.866 152.763 M172.243 153.658 C 171.893 153.907,171.952 153.933,172.506 153.776 C 172.962 153.647,173.321 153.720,173.504 153.981 C 173.735 154.311,173.766 154.303,173.666 153.938 C 173.512 153.374,172.833 153.240,172.243 153.658 M167.742 154.755 C 167.329 154.829,166.874 155.003,166.730 155.141 C 166.586 155.279,166.968 155.279,167.579 155.142 C 168.190 155.004,168.769 154.812,168.866 154.715 C 169.050 154.531,168.975 154.534,167.742 154.755 M152.887 168.117 L 140.285 180.795 152.963 168.193 C 159.936 161.262,165.641 155.557,165.641 155.515 C 165.641 155.304,164.600 156.333,152.887 168.117 M179.487 156.339 C 179.487 156.587,179.603 157.059,179.745 157.389 C 179.907 157.768,180.003 157.823,180.003 157.539 C 180.003 157.292,179.887 156.819,179.745 156.489 C 179.582 156.111,179.487 156.055,179.487 156.339 M222.356 159.654 C 222.027 159.876,222.148 159.904,222.806 159.757 C 223.909 159.510,224.149 159.338,223.381 159.344 C 223.065 159.347,222.603 159.486,222.356 159.654 M219.640 160.112 C 218.990 160.472,218.974 160.518,219.505 160.508 C 220.494 160.491,221.349 160.079,220.818 159.875 C 220.574 159.781,220.044 159.888,219.640 160.112 M194.149 169.150 C 194.561 169.234,195.010 169.458,195.147 169.648 C 195.312 169.878,195.354 169.843,195.274 169.542 C 195.205 169.288,194.770 169.072,194.275 169.045 C 193.520 169.004,193.502 169.018,194.149 169.150 M183.346 172.037 C 183.346 172.089,183.785 172.527,184.321 173.012 L 185.296 173.893 184.415 172.918 C 183.593 172.009,183.346 171.805,183.346 172.037 M182.140 176.969 L 179.295 179.895 182.221 177.050 C 184.938 174.408,185.283 174.044,185.065 174.044 C 185.021 174.044,183.704 175.360,182.140 176.969 M197.299 180.345 C 196.921 180.508,196.866 180.603,197.149 180.603 C 197.397 180.603,197.869 180.487,198.200 180.345 C 198.578 180.183,198.633 180.087,198.350 180.087 C 198.102 180.087,197.629 180.203,197.299 180.345 M171.343 181.859 C 171.014 182.082,171.136 182.109,171.793 181.962 C 172.896 181.716,173.136 181.544,172.368 181.550 C 172.052 181.553,171.590 181.692,171.343 181.859 M163.391 183.946 L 162.491 184.175 163.298 184.211 C 163.742 184.230,164.189 184.111,164.291 183.946 C 164.393 183.781,164.435 183.662,164.384 183.681 C 164.333 183.701,163.886 183.820,163.391 183.946 M154.539 186.360 C 154.210 186.583,154.331 186.611,154.989 186.464 C 156.092 186.217,156.332 186.045,155.564 186.051 C 155.248 186.054,154.786 186.193,154.539 186.360 M142.986 189.347 C 142.607 189.510,142.552 189.605,142.836 189.605 C 143.083 189.605,143.556 189.489,143.886 189.347 C 144.264 189.185,144.320 189.089,144.036 189.089 C 143.788 189.089,143.316 189.205,142.986 189.347 M131.883 192.348 C 131.505 192.511,131.449 192.606,131.733 192.606 C 131.980 192.606,132.453 192.490,132.783 192.348 C 133.161 192.186,133.217 192.090,132.933 192.090 C 132.686 192.090,132.213 192.206,131.883 192.348 " stroke="none" fill="#bbbbbb" fill-rule="evenodd"></path></g></svg>